HIERARCHY
ROOT Hips
{
	OFFSET 0.00 0.00 0.00
	CHANNELS 6 Xposition Yposition Zposition Xrotation Yrotation Zrotation
	JOINT Spine
	{
		OFFSET 0.00000 3.24121 0.00000
		CHANNELS 3 Xrotation Yrotation Zrotation
		JOINT Head
		{
			OFFSET 0.00000 18.38296 0.00000
			CHANNELS 3 Xrotation Yrotation Zrotation
			End Site
			{
				OFFSET 0.00000 4.52755 0.00000
			}
		}
		JOINT LeftShoulder
		{
			OFFSET 0.00000 12.82826 0.00000
			CHANNELS 3 Xrotation Yrotation Zrotation
			JOINT LeftArm
			{
				OFFSET 7.74805 0.00000 0.00000
				CHANNELS 3 Xrotation Yrotation Zrotation
				JOINT LeftForeArm
				{
					OFFSET 10.63561 0.00000 0.00000
					CHANNELS 3 Yrotation Zrotation Xrotation
					JOINT LeftHand
					{
						OFFSET 8.34675 0.00000 0.00000
						CHANNELS 3 Xrotation Yrotation Zrotation
						JOINT LeftHandThumb1
						{
							OFFSET 0.00000 0.00000 0.00000
							CHANNELS 3 Xrotation Zrotation Yrotation
							End Site
							{
								OFFSET 0.00000 0.00000 3.93700
							}
						}
						End Site
						{
							OFFSET 3.93700 0.00000 0.00000
						}
					}
				}
			}
		}
		JOINT RightShoulder
		{
			OFFSET 0.00000 12.82826 0.00000
			CHANNELS 3 Xrotation Yrotation Zrotation
			JOINT RightArm
			{
				OFFSET -7.74805 0.00000 0.00000
				CHANNELS 3 Xrotation Yrotation Zrotation
				JOINT RightForeArm
				{
					OFFSET -10.63561 0.00000 0.00000
					CHANNELS 3 Yrotation Zrotation Xrotation
					JOINT RightHand
					{
						OFFSET -8.34675 0.00000 0.00000
						CHANNELS 3 Xrotation Yrotation Zrotation
						JOINT RightHandThumb1
						{
							OFFSET 0.00000 0.00000 0.00000
							CHANNELS 3 Xrotation Zrotation Yrotation
							End Site
							{
								OFFSET 0.00000 0.00000 3.93700
							}
						}
						End Site
						{
							OFFSET -3.93700 0.00000 0.00000
						}
					}
				}
			}
		}
	}
	JOINT LeftUpLeg
	{
		OFFSET 3.43402 0.00000 0.00000
		CHANNELS 3 Xrotation Yrotation Zrotation
		JOINT LeftLeg
		{
			OFFSET 0.00000 -15.71302 0.00000
			CHANNELS 3 Xrotation Yrotation Zrotation
			JOINT LeftFoot
			{
				OFFSET 0.00000 -14.43512 0.00000
				CHANNELS 3 Xrotation Yrotation Zrotation
				JOINT LeftToeBase
				{
					OFFSET 0.00000 -1.27828 4.77061
					CHANNELS 3 Xrotation Yrotation Zrotation
					End Site
					{
						OFFSET 0.00000 0.00000 2.95275
					}
				}
			}
		}
	}
	JOINT RightUpLeg
	{
		OFFSET -3.43402 0.00000 0.00000
		CHANNELS 3 Xrotation Yrotation Zrotation
		JOINT RightLeg
		{
			OFFSET 0.00000 -15.71302 0.00000
			CHANNELS 3 Xrotation Yrotation Zrotation
			JOINT RightFoot
			{
				OFFSET 0.00000 -14.43512 0.00000
				CHANNELS 3 Xrotation Yrotation Zrotation
				JOINT RightToeBase
				{
					OFFSET 0.00000 -1.27828 4.77061
					CHANNELS 3 Xrotation Yrotation Zrotation
					End Site
					{
						OFFSET 0.00000 0.00000 2.95275
					}
				}
			}
		}
	}
}
MOTION
Frames: 16
Frame Time: 0.008333
 0.7689 32.6438 -5.5991 24.1155 1.4806 -0.8622 -27.0223 -12.9820 1.6255 25.4090 33.0087 2.9065 -3.9815 32.7582 59.7082 165.6979 -40.0635 -73.6198 -124.4183 -0.0000 -13.4890 2.6916 6.0742 -23.9545 33.1476 -0.0000 26.2537 51.6162 -60.0359 -10.8352 -107.0715 -44.6760 37.9045 134.5434 0.0000 -73.3156 0.1865 13.0089 -0.8282 32.8623 0.0000 -24.3270 -16.7375 4.1528 0.2987 -1.7981 -0.0000 0.0000 -4.7269 -1.7824 -2.5645 3.5094 0.0000 -0.0000 -16.1893 -9.9868 0.2548 -2.7621 0.0000 0.0000 -6.0232 -4.8670 11.6589 15.6324 -0.0000 -0.0000
 0.7687 32.6436 -5.6008 24.1239 1.4803 -0.8623 -27.0363 -12.9726 1.6308 25.4252 32.9557 2.8907 -3.9521 32.7760 59.6804 165.6817 -40.0396 -73.5990 -124.3972 -0.0000 -13.4330 2.7029 6.0577 -24.1018 33.1476 -0.0000 26.2537 51.5265 -60.0342 -10.9164 -107.0686 -44.6422 37.9097 134.5283 0.0000 -73.3088 0.1964 13.0096 -0.8723 32.8623 0.0000 -24.3270 -16.7518 4.1601 0.2986 -1.7938 -0.0000 0.0000 -4.7189 -1.7910 -2.5333 3.4506 -0.0000 0.0000 -16.2086 -10.0241 0.2570 -2.7461 -0.0000 -0.0000 -6.0455 -4.8193 11.6180 15.6605 -0.0000 0.0000
 0.7676 32.6436 -5.6029 24.1366 1.4763 -0.8588 -27.0558 -12.9626 1.6295 25.4383 32.9133 2.8734 -3.9666 32.8531 59.6567 165.7016 -39.9812 -73.5888 -124.4155 -0.0000 -13.4465 2.6531 5.8862 -24.3159 33.1476 -0.0000 26.2537 51.5197 -60.0353 -10.9523 -107.1359 -44.6509 37.8809 134.5202 0.0000 -73.3423 0.2028 13.0251 -0.8997 32.8623 0.0000 -24.3270 -16.7709 4.1668 0.2999 -1.7879 0.0000 -0.0000 -4.7362 -1.7880 -2.5743 3.4896 0.0000 0.0000 -16.2120 -9.9819 0.2551 -2.7748 -0.0000 -0.0000 -5.9936 -4.8642 11.7081 15.5680 0.0000 -0.0000
 0.7675 32.6439 -5.6048 24.1482 1.4903 -0.8521 -27.0746 -12.9663 1.6189 25.4539 32.8602 2.8392 -3.9879 32.7736 59.6743 165.8098 -40.0381 -73.5530 -124.3797 -0.0000 -13.5015 2.6895 6.0221 -24.1209 33.1476 -0.0000 26.2537 51.3703 -60.0305 -11.0929 -107.1152 -44.6205 37.8761 134.5123 0.0000 -73.3666 0.2035 13.0261 -0.9028 32.8623 0.0000 -24.3270 -16.7898 4.1532 0.2905 -1.7808 -0.0000 -0.0000 -4.7294 -1.7925 -2.5893 3.5639 0.0000 0.0000 -16.2367 -10.0357 0.2455 -2.7537 0.0000 0.0000 -6.0342 -4.8286 11.6756 15.6448 0.0000 -0.0000
 0.7661 32.6443 -5.6066 24.1461 1.4957 -0.8537 -27.0774 -12.9548 1.6117 25.4639 32.8116 2.8218 -3.9651 32.7965 59.6729 165.8275 -40.0196 -73.5041 -124.3486 -0.0000 -13.6578 2.6376 5.8514 -24.3170 33.1476 -0.0000 26.2537 51.3187 -60.0356 -11.1522 -107.1369 -44.6056 37.8824 134.5129 0.0000 -73.4613 0.2113 13.0557 -0.9354 32.8623 0.0000 -24.3270 -16.7969 4.1386 0.2939 -1.7709 -0.0000 0.0000 -4.7147 -1.7820 -2.5578 3.4879 -0.0000 0.0000 -16.2393 -10.0417 0.2502 -2.7478 0.0000 0.0000 -6.0536 -4.8265 11.5876 15.6943 0.0000 -0.0000
 0.7640 32.6456 -5.6094 24.1404 1.4953 -0.8507 -27.0797 -12.9258 1.6000 25.4878 32.7595 2.7967 -3.9753 32.8282 59.6512 165.8533 -39.9793 -73.4954 -124.3473 -0.0000 -13.6434 2.6481 5.8725 -24.3255 33.1476 -0.0000 26.2537 51.2101 -60.0381 -11.2447 -107.1072 -44.5570 37.8977 134.4958 0.0000 -73.4311 0.2156 13.0773 -0.9528 32.8623 0.0000 -24.3270 -16.8049 4.1257 0.2977 -1.7542 -0.0000 -0.0000 -4.7091 -1.7740 -2.5791 3.4792 -0.0000 0.0000 -16.2420 -10.0351 0.2507 -2.7428 0.0000 0.0000 -6.0301 -4.8245 11.6206 15.6361 0.0000 -0.0000
 0.7613 32.6463 -5.6103 24.1299 1.5014 -0.8485 -27.0786 -12.9139 1.5841 25.5227 32.7173 2.7502 -3.9688 32.8280 59.6413 165.9006 -39.9984 -73.4666 -124.3499 -0.0000 -13.6768 2.6558 5.9108 -24.2489 33.1476 -0.0000 26.2537 51.0925 -60.0218 -11.3483 -107.1105 -44.5230 37.8866 134.4999 0.0000 -73.4463 0.2285 13.1070 -1.0077 32.8623 0.0000 -24.3270 -16.8038 4.1257 0.3007 -1.7409 0.0000 0.0000 -4.7122 -1.7802 -2.6098 3.4739 0.0000 0.0000 -16.2375 -10.0529 0.2541 -2.7324 0.0000 -0.0000 -6.0425 -4.8250 11.5996 15.6644 -0.0000 0.0000
 0.7582 32.6469 -5.6123 24.1234 1.5074 -0.8514 -27.0786 -12.9034 1.5666 25.5542 32.6767 2.7023 -3.9681 32.8296 59.6289 165.9471 -40.0234 -73.4342 -124.3388 -0.0000 -13.6092 2.6913 6.0220 -24.1351 33.1476 -0.0000 26.2537 51.0995 -60.0142 -11.3617 -107.2208 -44.5358 37.8313 134.4638 0.0000 -73.3259 0.1800 13.0628 -0.7965 32.8623 0.0000 -24.3270 -16.8092 4.1161 0.3085 -1.7290 -0.0000 -0.0000 -4.7058 -1.7796 -2.5822 3.4604 -0.0000 -0.0000 -16.2411 -10.0619 0.2593 -2.7168 0.0000 -0.0000 -6.0337 -4.8243 11.6100 15.6369 -0.0000 0.0000
 0.7546 32.6474 -5.6146 24.1131 1.5192 -0.8509 -27.0749 -12.8875 1.5430 25.5908 32.6241 2.6388 -3.9496 32.8309 59.5998 165.9910 -40.0532 -73.3950 -124.3297 -0.0000 -13.6441 2.6986 6.0625 -24.0512 33.1476 -0.0000 26.2537 50.9681 -59.9958 -11.4725 -107.2613 -44.4920 37.7660 134.4547 0.0000 -73.2905 0.1799 13.0313 -0.7978 32.8623 0.0000 -24.3270 -16.8162 4.0959 0.3112 -1.7051 -0.0000 -0.0000 -4.7055 -1.7635 -2.5842 3.4488 -0.0000 0.0000 -16.2305 -10.0412 0.2601 -2.7222 0.0000 0.0000 -6.0331 -4.8492 11.5956 15.6515 -0.0000 0.0000
 0.7501 32.6478 -5.6168 24.1072 1.5281 -0.8531 -27.0782 -12.8725 1.5228 25.6445 32.5978 2.5611 -3.9298 32.8414 59.5810 166.0256 -40.0568 -73.3480 -124.3301 -0.0000 -13.6430 2.7131 6.0852 -24.0856 33.1476 -0.0000 26.2537 50.8844 -59.9990 -11.5593 -107.3323 -44.4622 37.7135 134.4593 0.0000 -73.3472 0.2018 13.0230 -0.8956 32.8623 0.0000 -24.3270 -16.8255 4.0841 0.3192 -1.6859 0.0000 0.0000 -4.7083 -1.7603 -2.5879 3.4787 0.0000 -0.0000 -16.2334 -10.0406 0.2648 -2.7109 0.0000 0.0000 -6.0010 -4.8611 11.7020 15.5193 0.0000 0.0000
 0.7454 32.6487 -5.6185 24.1005 1.5324 -0.8577 -27.0801 -12.8440 1.5025 25.6953 32.5578 2.4833 -3.9139 32.8568 59.5588 166.0556 -40.0459 -73.2913 -124.3183 -0.0000 -13.5587 2.7091 6.0508 -24.1748 33.1476 -0.0000 26.2537 50.7939 -59.9967 -11.6381 -107.4115 -44.4236 37.6495 134.4103 0.0000 -73.2332 0.1782 13.0246 -0.7907 32.8623 0.0000 -24.3270 -16.8355 4.0830 0.3299 -1.6621 -0.0000 0.0000 -4.7103 -1.7639 -2.5688 3.4383 -0.0000 -0.0000 -16.2340 -10.0407 0.2760 -2.6948 -0.0000 -0.0000 -6.0501 -4.8613 11.5984 15.7261 -0.0000 0.0000
 0.7411 32.6492 -5.6214 24.0938 1.5374 -0.8625 -27.0783 -12.8229 1.4857 25.7575 32.5367 2.3835 -3.8918 32.8647 59.5410 166.0923 -40.0462 -73.2452 -124.3179 -0.0000 -13.5685 2.7228 6.0749 -24.1986 33.1476 -0.0000 26.2537 50.7354 -60.0051 -11.7091 -107.5073 -44.4044 37.5835 134.3836 0.0000 -73.2080 0.1635 13.0118 -0.7261 32.8623 0.0000 -24.3270 -16.8444 4.0781 0.3412 -1.6450 -0.0000 -0.0000 -4.7211 -1.7569 -2.5893 3.4887 0.0000 -0.0000 -16.2350 -10.0356 0.2859 -2.6836 0.0000 0.0000 -6.0492 -4.8664 11.5917 15.6670 -0.0000 0.0000
 0.7357 32.6496 -5.6243 24.0802 1.5404 -0.8656 -27.0721 -12.7855 1.4592 25.8007 32.5044 2.3122 -3.8713 32.8629 59.5195 166.1267 -40.0370 -73.2042 -124.2941 -0.0000 -13.5358 2.7038 6.0073 -24.2871 33.1476 -0.0000 26.2537 50.5490 -59.9836 -11.8650 -107.5316 -44.3156 37.5192 134.3467 0.0000 -73.1737 0.1705 13.0643 -0.7542 32.8623 0.0000 -24.3270 -16.8425 4.0659 0.3523 -1.6368 -0.0000 0.0000 -4.7123 -1.7432 -2.5774 3.4543 -0.0000 0.0000 -16.2335 -10.0211 0.2965 -2.6669 0.0000 -0.0000 -6.0499 -4.8729 11.5952 15.6710 0.0000 0.0000
 0.7298 32.6501 -5.6270 24.0656 1.5512 -0.8736 -27.0648 -12.7557 1.4274 25.8345 32.4465 2.2417 -3.8575 32.8756 59.4885 166.1690 -40.0237 -73.1683 -124.2613 -0.0000 -13.4930 2.6665 5.9130 -24.3267 33.1476 -0.0000 26.2537 50.4984 -59.9898 -11.9246 -107.5706 -44.3152 37.4950 134.3140 0.0000 -73.1660 0.1694 13.0858 -0.7482 32.8623 0.0000 -24.3270 -16.8404 4.0612 0.3660 -1.6248 0.0000 0.0000 -4.7241 -1.7452 -2.5988 3.5094 -0.0000 0.0000 -16.2263 -10.0499 0.3098 -2.6531 -0.0000 0.0000 -6.0491 -4.8365 11.5801 15.6538 -0.0000 0.0000
 0.7219 32.6505 -5.6297 24.0253 1.5483 -0.8828 -27.0298 -12.7107 1.3932 25.8736 32.3902 2.1862 -3.8676 32.8558 59.4888 166.2316 -40.0111 -73.1404 -124.2480 -0.0000 -13.5268 2.6710 5.9090 -24.3782 33.1476 -0.0000 26.2537 50.4350 -59.9747 -11.9744 -107.6033 -44.2469 37.4745 134.3097 0.0000 -73.1461 0.1912 13.1082 -0.8431 32.8623 0.0000 -24.3270 -16.8164 4.0883 0.3912 -1.6090 -0.0000 -0.0000 -4.7291 -1.7650 -2.6145 3.5323 -0.0000 -0.0000 -16.1869 -10.0285 0.3343 -2.6549 -0.0000 0.0000 -6.0395 -4.8621 11.5796 15.6617 0.0000 0.0000
 0.7145 32.6507 -5.6323 24.0056 1.5632 -0.8915 -27.0164 -12.6884 1.3477 25.8881 32.3447 2.1467 -3.8815 32.8571 59.4928 166.2900 -40.0081 -73.1069 -124.2288 -0.0000 -13.5686 2.6723 5.9252 -24.3296 33.1476 -0.0000 26.2537 50.5634 -59.9432 -11.9440 -107.8392 -44.3689 37.3026 134.3495 0.0000 -73.2450 0.1778 12.9499 -0.7935 32.8623 0.0000 -24.3270 -16.8075 4.0832 0.4073 -1.6064 0.0000 0.0000 -4.7149 -1.7732 -2.5844 3.4587 0.0000 -0.0000 -16.1740 -10.0519 0.3500 -2.6413 0.0000 0.0000 -6.0564 -4.8497 11.5792 15.7015 -0.0000 0.0000
